<?xml version="1.0" encoding="iso-8859-1"?>
<!-- Generator: Adobe Illustrator 18.1.1, SVG Export Plug-In . SVG Version: 6.00 Build 0)  -->
<svg xmlns="http://www.w3.org/2000/svg" xmlns:xlink="http://www.w3.org/1999/xlink" version="1.1" id="Capa_1" x="0px" y="0px" viewBox="0 0 478.168 478.168" style="enable-background:new 0 0 478.168 478.168;" xml:space="preserve" width="512px" height="512px">
<g>
	<path id="Drupal_3_" d="M342.787,88.441c-24.566-15.122-47.637-21.039-70.868-36.181C257.534,42.636,237.59,19.684,220.815,0   c-3.068,31.778-12.711,44.808-23.809,54.072c-23.47,18.429-38.253,24.008-58.555,35.225   C121.436,98.143,28.612,153.73,29.21,272.713c0.418,118.864,101.092,206.069,212.524,205.451   c111.392-0.418,207.683-81.567,207.225-203.479C448.501,152.475,357.63,97.645,342.787,88.441z M346.074,431.305   c-2.351,2.371-23.51,17.154-48.434,19.585c-24.984,2.451-58.774,3.805-79.096-14.524c-3.267-3.048-2.411-7.81-0.12-9.563   c2.351-1.972,4.224-3.287,6.913-3.287c2.829,0,2.311,0,3.726,0.877c9.344,7.372,23.171,13.209,52.698,13.13   c29.547-0.1,50.426-8.348,59.691-15.501c4.144-3.088,5.897-0.438,6.535,1.454C348.385,425.248,349.282,428.037,346.074,431.305z    M265.762,392.852c4.981-4.582,13.448-11.994,21.298-15.261c7.81-3.307,11.894-2.889,19.326-2.909   c7.372,0,15.401,0.418,20.88,4.104c5.599,3.686,8.926,11.874,10.659,16.457c1.953,4.562,0.04,7.332-3.646,9.344   c-3.228,1.753-3.686,0.857-6.973-5.14c-3.088-5.877-5.957-11.954-22.195-11.914c-16.138,0.239-21.298,5.638-29.108,12.213   c-7.79,6.495-10.659,8.687-13.269,4.981C259.885,401.1,260.722,397.415,265.762,392.852z M432.223,304.312   c0.179,14.305-4.303,40.106-15.381,56.204c-10.998,16.277-17.951,22.354-31.001,21.318c-16.517-1.275-50.108-52.638-71.366-53.475   c-26.757-0.817-84.834,56.125-130.579,56.224c-27.813,0.08-36.081-4.044-45.426-9.902c-13.927-9.663-20.9-24.446-20.521-44.649   c0.359-36.002,33.89-69.693,76.486-70.39c54.072-0.558,91.768,53.116,119.103,52.499c23.071-0.478,67.342-45.944,89.018-45.984   C425.648,266.099,432.203,289.947,432.223,304.312z" fill="#0678be"/>
</g>
<g>
</g>
<g>
</g>
<g>
</g>
<g>
</g>
<g>
</g>
<g>
</g>
<g>
</g>
<g>
</g>
<g>
</g>
<g>
</g>
<g>
</g>
<g>
</g>
<g>
</g>
<g>
</g>
<g>
</g>
</svg>
